# WaveFront *.obj file (generated by CINEMA 4D)

mtllib ./pyramid.mtl

v -0.5 0 0.5
v 0.5 0 0.5
v 0.5 0 -0.5
v -0.5 0 -0.5
v 0 1 0
# 5 vertices

vn 0 -1 0
vn 0.89442718029022 0.44721359014511 0
vn 0 0 0
vn 0 0.44721359014511 -0.89442718029022
vn -0.89442718029022 0.44721359014511 0
vn 0 0.44721359014511 0.89442718029022
# 6 normals

vt 0 1 0
vt 1 1 0
vt 1 0 0
vt 0 0 0
vt 0.5 1 0
# 5 texture coordinates

o Pyramid
usemtl default
f 4/4/1 3/3/1 2/2/1 1/1/1
f 2/4/2 3/3/2 5/5/2
f 3/4/4 4/3/4 5/5/4
f 4/4/5 1/3/5 5/5/5
f 1/4/6 2/3/6 5/5/6

